<svg width="24" height="24" viewBox="0 0 24 24" fill="none" xmlns="http://www.w3.org/2000/svg">
<path d="M5 3C5 2.44772 5.44772 2 6 2H18C18.5523 2 19 2.44772 19 3V20.9464C19 21.3679 18.5104 21.6003 18.1838 21.3337L15.8162 19.401C15.6322 19.2507 15.3678 19.2507 15.1838 19.401L12.3162 21.7419C12.1322 21.8921 11.8678 21.8921 11.6838 21.7419L8.81619 19.401C8.63216 19.2507 8.36784 19.2507 8.18381 19.401L5.81619 21.3337C5.48963 21.6003 5 21.3679 5 20.9464V3Z" fill="#fff"/>
<path fill-rule="evenodd" clip-rule="evenodd" d="M4.25 3C4.25 2.0335 5.0335 1.25 6 1.25H18C18.9665 1.25 19.75 2.0335 19.75 3V20.9464C19.75 22.0003 18.5259 22.5812 17.7095 21.9147L15.5 20.111L12.7905 22.3229C12.3304 22.6984 11.6696 22.6984 11.2095 22.3229L8.5 20.111L6.29047 21.9147C5.47407 22.5812 4.25 22.0003 4.25 20.9464V3ZM6 2.75C5.86193 2.75 5.75 2.86193 5.75 3V20.4196L7.70953 18.82C8.1696 18.4444 8.83041 18.4444 9.29047 18.82L12 21.0318L14.7095 18.82C15.1696 18.4444 15.8304 18.4444 16.2905 18.82L18.25 20.4196V3C18.25 2.86193 18.1381 2.75 18 2.75H6Z" fill="#fff"/>
<path fill-rule="evenodd" clip-rule="evenodd" d="M7.25 8C7.25 7.58579 7.58579 7.25 8 7.25H16C16.4142 7.25 16.75 7.58579 16.75 8C16.75 8.41421 16.4142 8.75 16 8.75H8C7.58579 8.75 7.25 8.41421 7.25 8Z" fill="fff"/>
<path fill-rule="evenodd" clip-rule="evenodd" d="M7.25 11C7.25 10.5858 7.58579 10.25 8 10.25H16C16.4142 10.25 16.75 10.5858 16.75 11C16.75 11.4142 16.4142 11.75 16 11.75H8C7.58579 11.75 7.25 11.4142 7.25 11Z" fill="fff"/>
<path fill-rule="evenodd" clip-rule="evenodd" d="M7.25 14C7.25 13.5858 7.58579 13.25 8 13.25H16C16.4142 13.25 16.75 13.5858 16.75 14C16.75 14.4142 16.4142 14.75 16 14.75H8C7.58579 14.75 7.25 14.4142 7.25 14Z" fill="fff"/>
</svg>
