<svg width="24" height="24" viewBox="0 0 24 24" fill="none" xmlns="http://www.w3.org/2000/svg">
<path d="M11.0765 3.21997C11.4181 2.39868 12.5816 2.39868 12.9232 3.21997L14.9393 8.06739C15.0833 8.41363 15.4089 8.6502 15.7827 8.68016L21.0159 9.09971C21.9026 9.17079 22.2621 10.2773 21.5866 10.856L17.5994 14.2714C17.3146 14.5153 17.1903 14.8981 17.2773 15.2629L18.4954 20.3696C18.7018 21.2348 17.7605 21.9187 17.0014 21.455L12.5211 18.7184C12.2011 18.523 11.7986 18.523 11.4786 18.7184L6.99824 21.455C6.23914 21.9187 5.29789 21.2348 5.50427 20.3696L6.72241 15.2629C6.80942 14.8981 6.68505 14.5153 6.40026 14.2714L2.41311 10.856C1.73758 10.2773 2.0971 9.17079 2.98376 9.09971L8.21695 8.68016C8.59074 8.6502 8.91636 8.41363 9.06036 8.06739L11.0765 3.21997Z" fill="#fff"/>
<path fill-rule="evenodd" clip-rule="evenodd" d="M10.3841 2.93195C10.9819 1.49469 13.0179 1.49469 13.6157 2.93195L15.6319 7.77937C15.6679 7.86593 15.7493 7.92507 15.8427 7.93256L21.0759 8.35211C22.6276 8.4765 23.2568 10.4129 22.0746 11.4256L18.0874 14.841C18.0162 14.902 17.9851 14.9977 18.0069 15.0888L19.225 20.1956C19.5862 21.7097 17.939 22.9065 16.6106 22.0951L12.1302 19.3585C12.0502 19.3096 11.9496 19.3096 11.8696 19.3585L7.38926 22.0951C6.06084 22.9065 4.41365 21.7097 4.77483 20.1956L5.99296 15.0888C6.01472 14.9977 5.98362 14.902 5.91243 14.841L1.92528 11.4256C0.74309 10.4129 1.37227 8.4765 2.92391 8.35211L8.15711 7.93256C8.25055 7.92507 8.33195 7.86593 8.36796 7.77937L10.3841 2.93195ZM12.2308 3.508C12.1454 3.30267 11.8545 3.30267 11.7691 3.508L9.75294 8.35542C9.50093 8.96133 8.93111 9.37532 8.27697 9.42777L3.04378 9.84731C2.82211 9.86508 2.73223 10.1417 2.90112 10.2864L6.88826 13.7018C7.38664 14.1287 7.60429 14.7986 7.45203 15.4369L6.23389 20.5436C6.18229 20.7599 6.41761 20.9309 6.60738 20.815L11.0877 18.0784C11.6478 17.7363 12.3521 17.7363 12.9121 18.0784L17.3925 20.815C17.5822 20.9309 17.8176 20.7599 17.766 20.5436L16.5478 15.4369C16.3956 14.7986 16.6132 14.1287 17.1116 13.7018L21.0987 10.2864C21.2676 10.1417 21.1777 9.86508 20.9561 9.84731L15.7229 9.42777C15.0687 9.37532 14.4989 8.96133 14.2469 8.35542L12.2308 3.508Z" fill="#fff"/>
</svg>
