<svg width="24" height="24" viewBox="0 0 24 24" fill="none" xmlns="http://www.w3.org/2000/svg">

<path fill-rule="evenodd" clip-rule="evenodd" d="M1.25 11C1.25 10.0335 2.0335 9.25 3 9.25C3.9665 9.25 4.75 10.0335 4.75 11V20C4.75 20.9665 3.9665 21.75 3 21.75C2.0335 21.75 1.25 20.9665 1.25 20V11ZM3 10.75C2.86193 10.75 2.75 10.8619 2.75 11V20C2.75 20.1381 2.86193 20.25 3 20.25C3.13807 20.25 3.25 20.1381 3.25 20V11C3.25 10.8619 3.13807 10.75 3 10.75Z" fill="#729EFC"/>
<path d="M7 19.2222V11.4937C7 11.1683 7.25062 10.9149 7.54323 10.9282C8.77243 10.9843 9.56148 10.7523 10 9.77778C11 8.11111 11.7521 7.82703 12.5 7C14 5.33333 14.5 3.66667 14.6882 3.03079C14.8289 2.55556 15 2 15.5 2C16.1875 2 16.6758 2.90373 16.5 4.77778C16.3613 6.25617 15.5 8.66667 15 9.77778H20C21.3773 9.93052 21.8105 10.4231 22 12V15.3333C22 17.5556 20.5 22 19 22H12C12 22 11 22 10 20.8889C9.31401 20.1267 8.15745 19.8873 7.49874 19.8122C7.22404 19.7808 7 19.529 7 19.2222Z" fill="#729EFC"/>
<path fill-rule="evenodd" clip-rule="evenodd" d="M14.3218 1.94219C14.5273 1.61059 14.9019 1.25 15.5 1.25C16.2517 1.25 16.7624 1.77007 17.0191 2.40501C17.2687 3.02244 17.34 3.8531 17.2467 4.84784C17.1696 5.66929 16.8995 6.70342 16.6001 7.64321C16.4456 8.12808 16.2786 8.60206 16.1172 9.02778H20C20.0276 9.02778 20.0552 9.0293 20.0827 9.03235C20.8288 9.11509 21.5125 9.30593 22.0039 9.85426C22.4733 10.3779 22.6473 11.1004 22.7446 11.9105C22.7482 11.9402 22.75 11.9701 22.75 12V15.3333C22.75 16.5682 22.3445 18.3325 21.7577 19.7815C21.4628 20.5096 21.1039 21.2045 20.6933 21.7317C20.3122 22.221 19.7424 22.75 19 22.75H12V22C12 22.75 11.9996 22.75 11.9992 22.75H11.9983L11.9965 22.75L11.9927 22.75L11.9839 22.7499L11.9617 22.7492C11.9449 22.7486 11.9241 22.7476 11.8997 22.7458C11.8508 22.7422 11.7871 22.7355 11.7105 22.7234C11.5576 22.6991 11.3529 22.6527 11.1145 22.5644C10.6339 22.3864 10.0294 22.0427 9.44253 21.3906C8.95603 20.8501 8.0525 20.6302 7.41371 20.5573C6.735 20.4799 6.25 19.8845 6.25 19.2222V11.4937C6.25 10.7971 6.80323 10.1437 7.57741 10.179C8.15478 10.2053 8.52414 10.156 8.77422 10.0494C8.98736 9.95866 9.16516 9.80533 9.31606 9.47C9.32812 9.44319 9.34175 9.41712 9.35688 9.3919C9.89482 8.49533 10.3774 7.95446 10.8304 7.52796C10.9887 7.37898 11.1481 7.23991 11.2914 7.11483C11.3426 7.07019 11.3917 7.02733 11.438 6.98643C11.6212 6.82461 11.784 6.67345 11.9431 6.49769C13.3296 4.95677 13.7909 3.41993 13.9691 2.81789C13.9711 2.81104 13.9732 2.80405 13.9753 2.79693C14.0399 2.57826 14.1423 2.23199 14.3218 1.94219ZM15.5082 2.9276C15.474 3.021 15.4431 3.12314 15.4074 3.2437C15.2092 3.91333 14.6705 5.7095 13.0575 7.50172L13.0563 7.50304C12.8416 7.74048 12.6301 7.93478 12.431 8.11068C12.371 8.1637 12.3137 8.21366 12.258 8.2623C12.1218 8.38109 11.9947 8.49197 11.8587 8.62009C11.5041 8.95391 11.1171 9.38039 10.6641 10.1288C10.3764 10.7451 9.94675 11.1804 9.36202 11.4295C8.87001 11.639 8.31779 11.6946 7.75 11.6851V19.088C8.47292 19.1878 9.73906 19.4778 10.5575 20.3872C10.9706 20.8462 11.3661 21.058 11.6355 21.1578C11.7721 21.2084 11.8799 21.2315 11.9457 21.2419C11.9786 21.2471 12.0007 21.2492 12.0105 21.2499C12.0111 21.2499 12.0116 21.25 12.0122 21.25H19C19.0076 21.25 19.1878 21.2235 19.5099 20.81C19.8024 20.4344 20.0997 19.8793 20.3673 19.2185C20.9055 17.8897 21.25 16.3207 21.25 15.3333V12.0458C21.1579 11.3107 21.0232 11.0074 20.8869 10.8554C20.7726 10.7278 20.5579 10.5988 19.9572 10.5278H15C14.7455 10.5278 14.5084 10.3987 14.3702 10.185C14.232 9.97129 14.2116 9.70209 14.3161 9.47001C14.5526 8.94427 14.8831 8.09106 15.1709 7.18781C15.4618 6.27497 15.6916 5.36466 15.7533 4.70772C15.8358 3.8284 15.7509 3.27017 15.6284 2.96723C15.6011 2.8997 15.5747 2.8516 15.5525 2.81799C15.5387 2.8485 15.5239 2.88476 15.5082 2.9276Z" fill="#729EFC"/>
</svg>
