<svg width="24" height="24" viewBox="0 0 24 24" fill="none" xmlns="http://www.w3.org/2000/svg">
<path fill-rule="evenodd" clip-rule="evenodd" d="M5 6C3.34315 6 2 7.34315 2 9V15C2 16.6569 3.34315 18 5 18H14.4386C16.0955 18 17.4386 16.6569 17.4386 15V13.9988C17.4386 13.9907 17.4477 13.986 17.4544 13.9907L21.2118 16.6404C21.543 16.8739 21.9999 16.637 21.9999 16.2317V7.76826C21.9999 7.36296 21.543 7.12607 21.2118 7.35965L17.4544 10.0093C17.4477 10.014 17.4386 10.0093 17.4386 10.0012V9C17.4386 7.34315 16.0955 6 14.4386 6H5Z" fill="#fff"/>
<path fill-rule="evenodd" clip-rule="evenodd" d="M5 6.75C3.75736 6.75 2.75 7.75736 2.75 9V15C2.75 16.2426 3.75736 17.25 5 17.25H14.4386C15.6812 17.25 16.6886 16.2426 16.6886 15V13.9988C16.6886 13.3827 17.3831 13.0227 17.8866 13.3777L21.2499 15.7495V8.25047L17.8866 10.6223C17.3831 10.9773 16.6886 10.6172 16.6886 10.0012V9C16.6886 7.75736 15.6812 6.75 14.4386 6.75H5ZM1.25 9C1.25 6.92893 2.92893 5.25 5 5.25H14.4386C16.3709 5.25 17.9619 6.71156 18.1664 8.5895L20.7795 6.74672C21.6076 6.16277 22.7499 6.755 22.7499 7.76826V16.2317C22.7499 17.245 21.6076 17.8372 20.7795 17.2533L18.1664 15.4105C17.9619 17.2884 16.3709 18.75 14.4386 18.75H5C2.92893 18.75 1.25 17.0711 1.25 15V9Z" fill="#fff"/>
</svg>
