<?xml version="1.0" encoding="utf-8"?>
<!-- Generator: Adobe Illustrator 24.3.0, SVG Export Plug-In . SVG Version: 6.00 Build 0)  -->
<svg version="1.1" id="Слой_1" xmlns="http://www.w3.org/2000/svg" xmlns:xlink="http://www.w3.org/1999/xlink" x="0px" y="0px"
	 viewBox="0 0 2237.6 1938.3" style="enable-background:new 0 0 2237.6 1938.3;" xml:space="preserve">
<style type="text/css">
	.st0{fill:#F94973;}
	.st1{fill:#FFFFFF;}
</style>
<path class="st0" d="M1126.9,0L0,710l197.2,313l136.7-86.1v1001.4h1568.6V935.5l135.6,86.8l199.4-311.6L1126.9,0z"/>
<g transform="translate(0.000000,1232.000000) scale(0.100000,-0.100000)">
	<path class="st1" d="M13046.5,7401.7c-725-171-1292-772-1566-1661c-128-415-184-930-142-1305c82-741,432-1322,951-1583
		c294-148,585-173,859-76c192,68,451,220,620,364c449,381,769,968,889,1630c41,227,51,342,50,595c0,484-68,837-219,1150
		c-230,476-594,788-1027,881C13342.5,7421.7,13144.5,7423.7,13046.5,7401.7z"/>
	<path class="st1" d="M8423.5,7355.7c-401-70-779-386-1004-839c-123-247-181-484-207-847c-12-159-6-414,12-574
		c103-908,527-1673,1166-2101c128-86,340-191,484-239c102-34,128-38,241-43c150-6,257,8,388,50c203,65,369,167,525,323
		c309,309,501,775,546,1323c18,226-2,562-51,825c-196,1067-809,1857-1621,2091C8740.5,7370.7,8574.5,7381.7,8423.5,7355.7z"/>
	<path class="st1" d="M16006.5,3706.7c-669-110-1251-571-1614-1280c-167-327-251-593-316-1007c-23-148-27-204-27-374
		c0-208,12-311,55-479c115-451,386-818,723-981c184-89,352-122,541-105c459,40,868,247,1232,623c401,415,677,989,767,1592
		c23,150,39,446,32,567c-37,622-371,1169-836,1369C16383.5,3708.7,16185.5,3735.7,16006.5,3706.7z"/>
	<path class="st1" d="M5654.5,3444.7c-435-73-801-377-936-779c-48-142-88-345-105-530c-62-671,174-1429,618-1985
		c332-415,760-702,1239-831c403-108,765-6,1072,301c274,274,411,674,411,1201c0,205-10,317-46,507c-122,652-492,1276-999,1685
		c-233,188-547,361-745,410C6007.5,3462.7,5810.5,3470.7,5654.5,3444.7z"/>
	<path class="st1" d="M10843.5,1005.7c-348-39-692-132-1031-281c-518-229-1018-610-1341-1024c-697-894-1181-1862-1378-2755
		c-12-55-33-138-46-185c-67-243-56-519,31-760c140-388,443-689,818-815c224-75,559-74,932,4c243,50,425,108,941,299
		c718,267,917,318,1400,363c216,20,255,21,404,10c381-27,682-110,1260-346c512-209,798-322,870-342c720-204,1435,47,1680,590
		c107,239,119,628,29,997c-88,359-349,942-599,1335c-705,1110-1208,1727-1790,2197c-547,441-1006,650-1571,713
		C11293.5,1023.7,11005.5,1023.7,10843.5,1005.7z"/>
</g>
</svg>
