<svg width="49" height="45" viewBox="0 0 49 45" fill="none" xmlns="http://www.w3.org/2000/svg">
<path d="M1 18.9542C1.02024 17.8308 1.7894 16.5354 3.28724 15.7358C4.81544 14.9262 6.34364 15.0476 7.77063 16.0192C8.10461 16.2419 8.27666 16.2014 8.57016 15.9889C12.4767 13.1349 16.4034 10.291 20.3302 7.45725C20.6642 7.21436 20.735 7.02207 20.6136 6.61725C20.0873 4.85628 20.5225 3.30783 21.8989 2.10349C23.2753 0.899149 24.8844 0.676497 26.5442 1.45578C28.2242 2.24518 29.0237 3.65193 29.0339 5.49387C29.0339 5.93917 28.9428 6.37436 28.7809 6.77918C28.6796 7.03219 28.7404 7.19412 28.9731 7.35605C29.7423 7.90256 30.5115 8.45918 31.2705 9.01581C31.736 9.35991 31.8474 9.77485 31.5842 10.1392C31.3211 10.5137 30.896 10.544 30.4204 10.21C29.6613 9.67365 28.9124 9.12714 28.1635 8.57051C27.9206 8.38834 27.7789 8.39846 27.5461 8.60087C25.9167 10.0279 23.5587 10.038 21.9191 8.62111C21.6459 8.38834 21.484 8.40858 21.2208 8.60087C17.3244 11.4447 13.4179 14.2785 9.50124 17.1021C9.19763 17.3248 9.12679 17.4968 9.26847 17.8612C10.0781 19.9055 9.44052 21.9498 7.61883 23.1846C7.35569 23.3566 7.32533 23.5084 7.42654 23.7817C8.81305 27.506 10.1996 31.2304 11.576 34.9649C11.6974 35.2988 11.8796 35.4 12.2237 35.3899C14.4401 35.3596 15.9379 36.4222 16.6261 38.5273C16.7273 38.8208 16.869 38.9321 17.1827 38.9321C22.1924 38.922 27.1919 38.922 32.2016 38.9321C32.5457 38.9321 32.6975 38.8107 32.7785 38.4868C33.2136 36.7562 35.0151 35.2179 37.11 35.3798C37.525 35.4102 37.7173 35.2685 37.859 34.8839C39.2151 31.1798 40.5915 27.4858 41.978 23.7918C42.0893 23.4983 42.0387 23.3364 41.7655 23.1542C39.9843 21.96 39.3264 19.8549 40.1361 17.8713C40.298 17.4766 40.2069 17.2944 39.8831 17.0819C39.3568 16.7277 38.8407 16.3532 38.3346 15.9686C37.8893 15.6245 37.7982 15.2298 38.0614 14.8756C38.3245 14.5113 38.7293 14.4708 39.1848 14.7946C39.7616 15.1995 40.3284 15.6043 40.885 16.0293C41.138 16.2318 41.3101 16.2419 41.6036 16.0395C44.1641 14.2279 47.6658 15.584 48.3438 18.6303C48.9511 21.373 46.7043 24.0347 43.9009 23.8626C43.5973 23.8424 43.4657 23.9234 43.3645 24.1966C41.978 27.9614 40.5814 31.7162 39.1746 35.4709C39.0532 35.7947 39.1139 35.9465 39.3872 36.149C40.8749 37.2521 41.5125 38.7398 41.138 40.5514C40.7534 42.3933 39.5592 43.5167 37.7274 43.9114C35.6527 44.3567 33.4869 43.0815 32.8392 41.0271C32.6874 40.5413 32.4647 40.4198 31.9789 40.4198C27.1008 40.4401 22.2329 40.4401 17.3548 40.4198C16.8892 40.4198 16.6767 40.5514 16.5451 41.0169C16.029 42.7678 14.3793 43.9519 12.5374 43.9721C10.5943 43.9924 8.95474 42.8386 8.35762 41.0372C7.77063 39.256 8.37787 37.3027 9.90607 36.2097C10.2704 35.9465 10.3109 35.7441 10.1591 35.3393C8.77257 31.6453 7.4063 27.9513 6.0299 24.2472C5.93882 24.0144 5.88822 23.8323 5.534 23.8525C3.05447 23.9942 1 22.0511 1 18.9542ZM15.3104 39.681C15.2801 38.0516 13.9846 36.7865 12.4058 36.827C10.8372 36.8675 9.54173 38.2237 9.60245 39.762C9.66317 41.3813 10.9586 42.5755 12.5981 42.5451C14.1364 42.5148 15.3408 41.2396 15.3104 39.681ZM5.27086 22.385C6.82943 22.3952 8.13497 21.12 8.14509 19.5816C8.16533 18.013 6.89015 16.6872 5.33159 16.6669C3.7629 16.6366 2.45736 17.932 2.43712 19.5007C2.41687 21.0997 3.68194 22.385 5.27086 22.385ZM44.1236 22.385C45.7125 22.385 46.9978 21.12 46.9978 19.5513C46.9978 17.9624 45.7125 16.6771 44.1438 16.6771C42.5853 16.6771 41.2898 17.9826 41.2898 19.5513C41.2797 21.0896 42.5751 22.385 44.1236 22.385ZM27.5461 5.40278C27.5664 3.76326 26.3317 2.48807 24.7225 2.47795C23.1538 2.46783 21.8989 3.70254 21.8787 5.28134C21.8584 6.87026 23.1235 8.17581 24.682 8.19605C26.2406 8.20617 27.5259 6.96135 27.5461 5.40278ZM39.7717 39.6203C39.7515 38.0415 38.4966 36.8169 36.9178 36.827C35.3491 36.8473 34.1245 38.1427 34.1346 39.7519C34.1447 41.2598 35.4604 42.5552 36.9785 42.5249C38.5472 42.5046 39.792 41.2193 39.7717 39.6203Z" fill="#5FA8FF" stroke="#5FA8FF" stroke-width="0.5"/>
</svg>
