<svg width="43" height="47" viewBox="0 0 43 47" fill="none" xmlns="http://www.w3.org/2000/svg">
<path d="M37.081 9.50208C36.9343 10.4189 36.7876 10.5289 35.8341 10.5289C33.9272 10.4556 32.0569 8.87865 31.6168 6.86167C31.4701 6.1649 31.4701 6.1649 30.7733 6.1649C29.0497 6.1649 27.3628 6.1649 25.6392 6.1649C24.5024 6.1649 23.5489 6.53162 22.7421 7.37509C18.4148 11.8491 14.0875 16.3231 9.76012 20.7605C7.6698 22.9241 5.54281 25.0878 3.45249 27.2881C2.27898 28.4983 2.27898 30.0386 3.41582 31.3221C3.52584 31.4321 3.63585 31.5421 3.7092 31.6521C7.63313 35.5761 11.5571 39.4633 15.4443 43.3873C16.3611 44.3041 17.4246 44.7441 18.7448 44.3041C19.2216 44.1207 19.625 43.8273 19.955 43.4606C26.6294 36.8229 33.2671 30.1852 39.9047 23.5109C40.6015 22.8141 40.9316 21.9707 40.9316 20.9805C40.9316 16.8732 40.9316 12.7659 40.9316 8.62194C40.9316 7.00836 40.0514 6.12823 38.4379 6.12823C37.1543 6.12823 35.8708 6.12823 34.5873 6.12823C34.0005 6.12823 33.6705 5.87152 33.7071 5.35811C33.7071 4.88137 34.0005 4.62466 34.5873 4.62466C36.0542 4.62466 37.5577 4.62466 39.0246 4.62466C40.8215 4.62466 42.4718 6.27492 42.4718 8.07186C42.4718 12.5459 42.4718 17.0566 42.4718 21.5306C42.4718 22.5574 42.0684 23.4009 41.4083 24.171C41.2616 24.3177 41.1149 24.4644 40.9682 24.6111C34.3306 31.2487 27.6929 37.8864 21.0552 44.5241C20.3217 45.2942 19.4416 45.8076 18.3781 45.9543C16.9846 46.1377 15.7377 45.771 14.7476 44.8175C13.024 43.1672 11.3737 41.4436 9.68678 39.7567C7.26641 37.4097 4.84604 34.9893 2.46234 32.6056C0.518709 30.662 0.518709 28.0583 2.42567 26.1146C6.31293 22.0807 10.2369 18.0467 14.1608 14.0494C16.6545 11.4824 19.1482 8.91532 21.6419 6.31159C22.7054 5.21142 23.9523 4.62466 25.4925 4.66134C27.3995 4.69801 29.2698 4.66134 31.1767 4.69801C31.5068 4.69801 31.6902 4.58799 31.8002 4.25794C32.9003 0.957436 36.8243 -0.0327151 39.428 2.20429C39.6114 2.35098 39.7581 2.53434 39.9047 2.68103C40.1981 3.04776 40.1248 3.45115 39.8314 3.74453C39.5013 4.03791 39.1346 4.03791 38.7679 3.70786C38.4379 3.37781 38.0711 3.08443 37.6311 2.8644C36.3475 2.24097 34.6973 2.60769 33.7805 3.67119C32.827 4.8447 32.7903 6.45828 33.6705 7.66847C33.8538 7.92517 34.0372 7.99852 34.3306 7.85183C36.5676 6.86167 39.0246 8.1452 39.4647 10.5289C39.9047 12.7292 38.1811 14.7829 35.9075 14.8562C33.8171 14.9296 32.1669 13.1693 32.1669 11.3357C32.1669 10.7856 32.3869 10.4556 32.827 10.4189C33.3037 10.3822 33.5971 10.6389 33.6705 11.189C33.8905 12.4725 34.4406 13.096 35.6508 13.2793C36.5309 13.3893 37.4844 12.8026 37.8144 11.8858C38.2178 11.0056 37.8878 9.97882 37.081 9.50208Z" fill="#5FA8FF" stroke="#5FA8FF" stroke-width="0.5"/>
</svg>
