<svg width="53" height="41" viewBox="0 0 53 41" fill="none" xmlns="http://www.w3.org/2000/svg">
<path d="M50.9238 2.64252C49.8969 2.53623 48.878 2.42993 47.8511 2.33182C47.3938 2.29094 47.0167 2.08653 46.6477 1.83307C44.0804 0.042457 40.0931 1.27708 38.9298 4.21237C38.6089 5.01364 38.3201 5.81492 37.943 6.59167C37.0285 8.43951 35.5202 9.5106 33.6188 10.0748C32.2309 10.4836 30.8109 10.6635 29.3668 10.7043C26.5589 10.7861 23.7589 10.5817 20.951 10.6062C19.0416 10.6226 17.1322 10.6962 15.2629 11.1295C14.7334 11.2522 14.22 11.2194 13.7145 11.0477C10.6258 10.0175 7.69751 8.65209 5.17037 6.52626C4.07126 5.60234 3.08447 4.56395 2.34638 3.29662C2.14581 2.95322 1.90513 2.65069 1.45586 2.79787C0.982523 2.96139 0.966477 3.37021 1.02264 3.77902C1.19914 5.04635 1.71259 6.18285 2.40254 7.24577C3.9108 9.57601 6.01275 11.2276 8.34735 12.6012C9.06137 13.0264 9.80748 13.3943 10.5456 13.7705C10.8825 13.9422 11.035 14.1874 10.9066 14.5636C10.0963 16.951 10.1204 19.363 10.6579 21.7914C10.9066 22.9197 10.8183 24.0072 10.4734 25.0946C10.1845 26.0104 9.84759 26.9179 9.45448 27.7928C9.30205 28.128 9.18171 28.4714 9.10148 28.7903C7.85797 29.9759 7.09581 31.4639 6.82304 33.2464C6.7027 34.0231 6.75084 34.8081 6.75084 35.593C6.75084 35.8056 6.69468 35.8791 6.47806 35.8791C5.81218 35.8791 5.1463 35.8383 4.48844 35.9037C3.37328 36.0181 2.61915 36.9421 2.67531 38.1358C2.72345 39.1497 3.63803 40 4.689 40C10.337 40 15.993 40 21.6409 40C22.1143 40 22.371 39.7384 22.371 39.2478C22.371 38.839 22.371 38.4302 22.371 38.0132C22.371 37.1219 21.9699 36.476 21.1917 36.0754C21.0553 36.01 21.0152 35.92 21.0152 35.7729C21.0232 34.5382 21.0152 33.2954 21.0152 32.0608C21.0152 31.9382 21.0473 31.8401 21.0954 31.7338C21.7934 30.3683 21.8255 28.9865 21.1435 27.6129C20.9991 27.3186 21.0072 27.0651 21.1114 26.7871C21.2318 26.4928 21.4324 26.2638 21.6971 26.1003C22.1063 25.855 22.5074 25.6015 22.9166 25.3563C23.1492 25.2173 23.3658 25.0619 23.5664 24.8739C23.9274 24.5386 24.144 24.1216 24.2965 23.6719C26.5428 24.6286 28.8854 25.111 31.3564 25.0129C31.7335 24.9965 31.8859 25.1191 31.8538 25.5116C31.5971 28.3324 32.0464 31.1042 32.3352 33.8923C32.4395 34.9143 32.3432 35.9119 31.9421 36.8848C31.4126 38.1767 32.0303 38.9861 33.4102 38.8471C33.5787 38.8308 33.7472 38.7981 33.9157 38.7736C34.2606 38.7245 34.5174 38.7899 34.7179 39.1333C35.0469 39.6811 35.6084 39.861 36.2021 39.8692C37.0285 39.8855 37.8628 39.8937 38.6892 39.8692C39.5797 39.8446 40.1332 39.3704 40.2776 38.561C40.398 37.8578 39.9888 37.2282 39.1705 36.9339C38.7694 36.7949 38.7212 36.476 38.6169 36.149C37.9511 33.9822 38.1035 31.8074 38.5367 29.6161C38.7614 28.4714 38.8737 27.3022 39.0983 26.1575C39.4192 24.4896 40.1734 23.0832 41.5212 21.9958C43.0535 20.7694 43.7194 19.0196 44.0804 17.1391C44.3211 15.8881 44.4093 14.6126 44.3853 13.3371C44.3532 11.4239 45.2758 10.0993 46.9124 9.27349C47.6345 8.90556 48.3966 8.61121 49.1668 8.34139C49.9851 8.04705 50.5387 7.49106 50.9398 6.73884C51.3891 5.90486 51.71 5.01364 51.9426 4.0979C52.1592 3.29662 51.7501 2.73246 50.9238 2.64252ZM6.75084 38.4956C6.75084 38.6346 6.69468 38.6836 6.55829 38.6836C5.94857 38.6754 5.34686 38.6836 4.73714 38.6754C4.29589 38.6673 3.96696 38.3484 3.97499 37.9477C3.98301 37.5389 4.30392 37.2446 4.75319 37.2364C5.042 37.2364 5.33082 37.2364 5.61964 37.2364C5.93252 37.2364 6.23738 37.2446 6.55027 37.2364C6.69468 37.2364 6.75084 37.2936 6.74281 37.4408C6.74281 37.7924 6.74281 38.144 6.75084 38.4956ZM23.077 23.0833C23.0289 23.5002 22.8283 23.8355 22.4833 24.0562C22.0581 24.3342 21.6329 24.604 21.1997 24.8493C20.3012 25.3563 19.8037 26.1248 19.6995 27.1632C19.6674 27.4657 19.7075 27.7437 19.8599 28.0136C20.4777 29.101 20.4696 30.1884 19.8439 31.2677C19.7315 31.4558 19.6834 31.6438 19.6834 31.8646C19.6834 33.3854 19.6834 34.9062 19.6834 36.4188C19.6834 36.9502 19.892 37.1874 20.4054 37.2446C20.7745 37.2855 21.0232 37.5553 21.0392 37.9314C21.0473 38.1195 21.0392 38.3075 21.0473 38.4956C21.0473 38.6264 20.9991 38.6918 20.8627 38.6918C20.0685 38.6918 19.2823 38.6836 18.488 38.6918C18.3115 38.6918 18.2955 38.6019 18.2955 38.4629C18.2955 37.6616 18.2955 36.8685 18.2955 36.0672C18.2955 34.9143 18.2955 33.7615 18.2955 32.6086C18.2955 32.5187 18.2955 32.4369 18.2875 32.347C18.2393 31.9872 17.9425 31.7256 17.6055 31.7338C17.2686 31.7419 16.9878 32.0281 16.9717 32.396C16.9557 32.7067 16.9637 33.0174 16.9637 33.3281C16.9637 34.3257 16.9637 35.3313 16.9637 36.3288C16.9637 36.4024 16.9878 36.4842 16.9316 36.5741C16.7872 36.4842 16.6428 36.3943 16.4984 36.3125C16.2577 36.1735 16.001 36.0672 15.7282 36.01C15.5597 35.9773 15.4875 35.8873 15.4474 35.7156C15.2629 34.9143 14.8457 34.2684 14.1798 33.7942C13.6183 33.3936 12.9845 33.181 12.3025 33.1237C11.8693 33.091 11.5484 33.3527 11.5243 33.737C11.5003 34.1621 11.773 34.4483 12.2303 34.4728C13.3696 34.5382 14.1879 35.3722 14.244 36.5414C14.2601 36.9748 14.5088 37.2201 14.942 37.2446C15.7764 37.2936 16.3861 37.6861 16.7631 38.4547C16.8674 38.6591 16.8514 38.6836 16.6187 38.6836C13.8509 38.6836 11.0831 38.6836 8.30724 38.6918C8.11469 38.6918 8.06656 38.6264 8.06656 38.4383C8.07458 37.0238 8.04249 35.6175 8.07458 34.203C8.12271 32.1344 8.99719 30.4828 10.6258 29.2482C11.3478 28.7004 12.1341 28.2507 12.824 27.6702C13.9953 26.6808 14.7896 25.4462 15.2388 23.9663C15.2549 23.9172 15.2549 23.8518 15.3271 23.8109C15.4314 23.9908 15.5357 24.1625 15.64 24.3424C15.9529 24.8739 16.4824 24.8984 16.8434 24.4078C17.4852 23.5411 18.127 22.6663 18.7608 21.7996C18.8892 21.6197 18.9935 21.4316 18.9453 21.2027C18.8892 20.9165 18.7207 20.7203 18.4399 20.6549C18.1591 20.5895 17.9264 20.7039 17.7499 20.9329C17.3167 21.5216 16.8755 22.1021 16.4583 22.699C16.3379 22.8625 16.2898 22.8543 16.1935 22.6826C15.8004 21.9958 15.3913 21.309 14.9821 20.6304C14.8939 20.4832 14.8858 20.3442 14.942 20.1807C15.1586 19.5674 15.6319 19.2077 16.2978 19.1995C17.2766 19.1913 18.2473 19.1995 19.2261 19.1913C19.3545 19.1913 19.4347 19.2567 19.5149 19.3385C19.9161 19.7473 20.3252 20.148 20.7103 20.565C21.1917 21.0801 21.7693 21.3172 22.4593 21.3008C22.6117 21.3008 22.7721 21.3008 22.9246 21.3008C23.0369 21.3008 23.1011 21.3417 23.093 21.4643C23.093 21.9958 23.1412 22.5436 23.077 23.0833ZM34.5093 36.5823C34.397 37.3836 34.3569 37.449 33.5546 37.4817C33.2337 37.4899 33.1695 37.3999 33.2899 37.0974C33.8033 35.7729 33.7472 34.4074 33.5867 33.0256C33.3701 31.1287 33.0973 29.24 33.1294 27.3267C33.1294 26.6072 33.1134 25.8795 33.2177 25.16C33.2417 24.9802 33.2738 24.8003 33.4824 24.7921C33.7311 24.7839 33.6589 24.9965 33.667 25.1355C33.7071 27.0651 34.0922 28.962 34.2526 30.8753C34.405 32.7803 34.7741 34.6609 34.5093 36.5823ZM50.4986 4.36772C50.314 4.90735 50.1215 5.43881 49.8728 5.94574C49.592 6.52626 49.1828 6.94325 48.5571 7.14765C47.9794 7.33571 47.4259 7.59735 46.8563 7.82629C44.3211 8.88103 43.0294 10.8188 43.0214 13.6315C43.0214 14.6698 42.9813 15.7001 42.7968 16.7139C42.6283 17.6378 42.4117 18.5454 41.9063 19.3549C41.8822 19.2649 41.8902 19.1832 41.8982 19.1014C41.9785 18.2184 41.8501 17.3517 41.6174 16.5013C41.5131 16.1252 41.2404 15.9208 40.8473 16.0026C40.4541 16.0843 40.2937 16.3705 40.3418 16.7712C40.3579 16.8938 40.3739 17.0083 40.398 17.1309C40.8071 19.0769 40.4622 20.8511 39.2668 22.4455C38.5367 23.4185 38.0473 24.5141 37.8227 25.716C37.6462 26.6481 37.5098 27.5802 37.3654 28.5123C37.1729 29.7878 36.9643 31.0633 36.8199 32.3388C36.6674 33.7124 37.0365 35.037 37.2852 36.3697C37.4697 37.3182 37.8548 38.0132 38.8095 38.2912C38.8416 38.2993 38.8576 38.3647 38.8817 38.4056C38.7774 38.561 38.633 38.5119 38.5046 38.5119C37.7746 38.5201 37.0525 38.5201 36.3225 38.5119C35.7849 38.5037 35.6967 38.3811 35.7288 37.8169C35.7849 36.7377 36.0336 35.6666 35.9454 34.5709C35.7529 32.208 35.4961 29.845 35.1913 27.4903C35.0067 26.0349 34.8302 24.5877 35.1511 23.1241C35.3758 22.0939 35.7769 21.1209 36.1219 20.1398C36.3144 19.5838 36.2021 19.2159 35.793 19.0605C35.3999 18.9052 35.0709 19.1259 34.8704 19.6901C34.5976 20.4505 34.1884 21.2027 34.1082 21.9795C33.9718 23.2631 33.2337 23.5657 32.1828 23.5984C32.1507 23.5984 32.1186 23.6065 32.0785 23.6065C29.3507 23.8273 26.7915 23.3531 24.3847 22.2411C24.3847 21.6115 24.3847 20.9901 24.3847 20.3605C24.2162 20.0253 23.9515 19.8945 23.5905 19.9108C23.2294 19.9272 22.8684 19.919 22.4994 19.919C23.085 18.7662 23.5343 17.5643 23.7349 16.2724C23.8151 15.7573 23.5905 15.3894 23.1813 15.3321C22.7721 15.2831 22.4833 15.5284 22.4191 16.0353C22.2908 16.951 22.002 17.8095 21.6249 18.6353C21.5286 18.8398 21.4324 19.0442 21.3281 19.2486C20.9831 18.897 20.6381 18.5454 20.2931 18.1938C20.1648 18.063 20.0364 17.9485 19.884 17.8504C18.5281 17.8504 17.1723 17.8504 15.8165 17.8504C15.7844 17.8586 15.7523 17.875 15.7122 17.8831C14.7655 18.1039 14.0916 18.6762 13.7306 19.6001C13.5059 20.1725 13.4337 20.753 13.8509 21.2926C13.9231 21.3826 13.9632 21.497 14.0274 21.587C14.1798 21.7914 14.228 22.004 14.2039 22.2656C14.0435 23.9826 13.3375 25.4135 12.0619 26.5336C11.757 26.8035 11.4281 27.0406 11.0911 27.2695C11.3157 26.8689 11.4281 26.411 11.5805 25.9777C12.1581 24.3833 12.2464 22.7807 11.8773 21.1046C11.4361 19.1096 11.4602 17.1064 12.11 15.1441C12.5111 13.934 12.1902 13.0673 11.059 12.5031C9.992 11.9717 8.94103 11.4157 7.95424 10.7534C6.75084 9.95212 5.62766 9.06091 4.64087 7.96528C4.77725 7.89987 4.83341 7.98164 4.89759 8.02252C7.36858 9.91124 10.1444 11.2113 13.0486 12.2333C13.9231 12.544 14.7976 12.5685 15.6961 12.3887C16.3059 12.266 16.9236 12.1434 17.5413 12.0861C20.3092 11.8408 23.085 11.9308 25.8529 12.0044C27.9147 12.0616 29.9765 12.0861 32.0223 11.7673C34.4131 11.3912 36.6193 10.6062 38.2078 8.59486C38.4404 8.30051 38.5287 8.48039 38.625 8.69297C38.9699 9.43702 39.4674 10.0666 40.0209 10.6471C40.9275 11.6119 42.4037 11.383 43.0054 10.1974C43.5589 9.10997 43.6231 7.98981 43.1498 6.85331C42.8449 6.11744 42.7326 5.3734 42.9251 4.58848C42.9973 4.29413 42.893 4.04066 42.6443 3.86896C42.4117 3.70544 42.171 3.70544 41.9303 3.86896C41.7378 3.99978 41.6575 4.21237 41.5934 4.43313C41.3366 5.38975 41.4971 6.31367 41.8661 7.20489C42.163 7.94076 42.2111 8.67662 41.8982 9.41249C41.6816 9.92759 41.2965 10.0012 40.9034 9.60872C40.5023 9.20808 40.1653 8.75838 39.9006 8.25145C39.4674 7.43382 39.2187 6.60802 39.7321 5.70863C39.8926 5.43063 39.9808 5.10358 40.0851 4.80106C40.4301 3.7872 41.096 3.07586 42.0747 2.74063C43.4627 2.25823 44.8586 1.98024 46.1503 3.07586C46.6396 3.49285 47.2815 3.60732 47.9072 3.67273C48.6614 3.75449 49.4155 3.83626 50.1776 3.88531C50.5306 3.95072 50.6028 4.05702 50.4986 4.36772Z" fill="#5FA8FF" stroke="#5FA8FF" stroke-width="0.5"/>
</svg>
