<svg width="49" height="49" viewBox="0 0 49 49" fill="none" xmlns="http://www.w3.org/2000/svg">
<path d="M39.482 2C41.0052 2.89599 41.6324 4.31464 41.6921 5.98715C41.7369 7.43566 40.5124 8.60045 39.0639 8.60045C37.5855 8.61538 36.376 7.4954 36.3909 6.04688C36.4058 4.3445 37.033 2.89599 38.601 2C38.8847 2 39.1834 2 39.482 2Z" stroke="#5FA8FF" stroke-width="2.2"/>
<path d="M31.4929 2C33.0011 2.88106 33.6283 4.28477 33.703 5.94235C33.7627 7.42073 32.5233 8.61538 31.0449 8.61538C29.5665 8.61538 28.3569 7.4506 28.4167 5.97222C28.4764 4.28477 29.0887 2.88106 30.6268 2C30.9105 2 31.1942 2 31.4929 2Z" stroke="#5FA8FF" stroke-width="2.2"/>
<path d="M2 32.9863C2.28373 32.0007 2.62719 31.045 3.38878 30.2983C4.21011 29.5069 5.09116 29.4919 5.88262 30.3132C6.76367 31.2242 7.25647 32.3442 7.28633 33.6135C7.33113 34.9425 6.42021 36.0625 5.12103 36.3164C3.88158 36.5553 2.61226 35.8385 2.1344 34.6289C2.0896 34.5244 2.0448 34.4199 2 34.3004C2 33.8524 2 33.4193 2 32.9863Z" stroke="#5FA8FF" stroke-width="2.2"/>
<path d="M39.5718 24.4893C38.6609 24.5341 37.8246 24.34 37.0481 23.9069C35.6743 23.1454 34.3452 23.1603 32.9714 23.9069C31.1346 24.9075 28.7901 24.6387 27.2818 23.3694C25.6541 21.9955 25.669 19.7257 27.2968 18.3668C27.3864 18.2921 27.476 18.2025 27.5656 18.1428C28.5362 17.4558 29.1037 16.5001 29.4621 15.3801C30.0146 13.6927 31.0898 12.4234 32.7324 11.6767C34.5543 10.8404 36.3164 11.0196 38.0038 12.065C39.303 12.8714 40.2139 14.0212 40.647 15.4996C40.9904 16.6494 41.6774 17.5006 42.5883 18.2324C44.2757 19.5913 44.4699 21.5176 43.096 23.0558C42.5286 23.6979 41.7968 24.0861 40.9755 24.3101C40.4977 24.4445 40.0347 24.5192 39.5718 24.4893Z" stroke="#5FA8FF" stroke-width="2.2"/>
<path d="M18.292 46.9637C17.4857 46.9935 16.6793 46.7994 15.9475 46.3813C14.5588 45.5898 13.2297 45.6645 11.8111 46.3664C9.83989 47.3519 7.88365 47.2026 6.13647 45.8138C4.52369 44.5296 4.52369 42.2149 6.07674 40.871C6.22607 40.7366 6.39033 40.6022 6.5546 40.4827C7.39085 39.8704 7.95831 39.064 8.25698 38.0486C8.70497 36.5702 9.61589 35.4204 10.9001 34.5542C13.0206 33.1207 15.843 33.3745 17.6798 35.1516C18.531 35.9878 19.188 36.9435 19.5166 38.0934C19.8003 39.0939 20.3976 39.8555 21.204 40.4827C21.428 40.6619 21.6669 40.8411 21.8611 41.0502C23.3842 42.6779 23.0707 44.9626 21.1592 46.1573C20.308 46.7248 19.3672 46.9935 18.292 46.9637Z" stroke="#5FA8FF" stroke-width="2.2"/>
<path d="M44.2756 13.8718C42.6031 13.8718 41.4085 12.4382 41.6623 10.6612C41.8266 9.55614 42.2746 8.57055 43.0959 7.7791C43.8575 7.04737 44.7087 7.03244 45.4554 7.76416C46.4111 8.70495 46.9188 9.86974 46.9487 11.2137C46.9785 12.6921 45.754 13.8718 44.2756 13.8718Z" stroke="#5FA8FF" stroke-width="2.2"/>
<path d="M25.8183 33.4194C25.8183 35.1516 24.6236 36.3463 23.1453 36.3463C21.6818 36.3463 20.4872 35.1665 20.5021 33.6882C20.517 32.3442 21.0248 31.1794 21.9805 30.2386C22.7122 29.5218 23.5933 29.5069 24.325 30.2237C25.2807 31.1495 25.7138 32.3292 25.8183 33.4194Z" stroke="#5FA8FF" stroke-width="2.2"/>
<path d="M23.1305 10.8405C23.235 9.81008 23.683 8.67516 24.6238 7.7493C25.3257 7.06238 26.1769 7.03251 26.8936 7.71944C27.9688 8.74982 28.5214 10.049 28.4168 11.5423C28.3272 12.9311 27.028 13.9466 25.5646 13.8719C24.1758 13.7972 23.1006 12.5876 23.1305 10.8405Z" stroke="#5FA8FF" stroke-width="2.2"/>
<path d="M7.2416 28.0882C7.34614 27.0279 7.79413 25.8482 8.77972 24.9224C9.48158 24.2653 10.3328 24.2504 11.0197 24.9224C12.0799 25.9527 12.6175 27.2221 12.5429 28.7004C12.4682 30.0743 11.184 31.1345 9.72051 31.0748C8.33172 31.0151 7.22667 29.8055 7.2416 28.0882Z" stroke="#5FA8FF" stroke-width="2.2"/>
<path d="M15.2307 28.0882C15.3203 27.0428 15.7683 25.8781 16.739 24.9522C17.4558 24.2653 18.3368 24.2653 19.0536 24.9522C20.0093 25.8781 20.5171 27.0279 20.5619 28.357C20.6067 29.8801 19.3971 31.0897 17.9038 31.0897C16.3806 31.0748 15.2158 29.8801 15.2307 28.0882Z" stroke="#5FA8FF" stroke-width="2.2"/>
</svg>
