<svg width="24" height="44" viewBox="0 0 24 44" fill="none" xmlns="http://www.w3.org/2000/svg">
<path d="M23.654 1C23.654 1.54437 23.654 2.04686 23.654 2.59123C23.654 2.88435 23.5284 3.00997 23.2353 3.00997C23.1515 3.00997 23.1097 3.00997 23.0259 3.00997C15.9073 3.00997 8.74676 3.00997 1.62812 3.00997C1 3.00997 1 3.00997 1 2.38185C1 1.92124 1 1.46062 1 1C8.53739 1 16.1166 1 23.654 1Z" fill="#5FA8FF" stroke="#5FA8FF" stroke-width="0.5"/>
<path d="M11.2592 8.07675C10.3799 8.95611 9.58424 9.75173 8.78863 10.5473C8.36989 10.9661 8.36989 10.9661 7.99302 10.5473C7.74177 10.2961 7.44865 10.003 7.1974 9.75173C7.02991 9.58423 6.98803 9.45861 7.1974 9.24923C8.83051 7.61613 10.4636 5.98303 12.1386 4.30806C12.3061 4.14056 12.4317 4.14056 12.5992 4.30806C14.2323 5.94116 15.8654 7.57426 17.4985 9.20736C17.7079 9.41673 17.666 9.54235 17.4985 9.75173C17.1635 10.0448 16.8704 10.338 16.5773 10.673C16.3679 10.8823 16.2423 10.8405 16.0329 10.673C15.2792 9.91922 14.5254 9.12361 13.7298 8.36987C13.6461 8.28612 13.5623 8.1605 13.3948 8.11863C13.3948 17.331 13.3948 26.5434 13.3948 35.7557C13.5623 35.7138 13.6461 35.5882 13.7298 35.5045C14.4835 34.7507 15.2373 33.997 15.991 33.2433C16.2004 33.0339 16.3679 32.992 16.5773 33.2433C16.8704 33.5782 17.2054 33.8714 17.4985 34.1645C17.666 34.332 17.7079 34.4576 17.4985 34.6251C15.8654 36.2582 14.1904 37.9332 12.5573 39.5663C12.3898 39.7338 12.2642 39.7338 12.0967 39.5663C10.4636 37.8913 8.78863 36.2582 7.15553 34.6251C6.98803 34.4576 6.98803 34.332 7.15553 34.1645C7.49053 33.8714 7.82552 33.5364 8.11864 33.2014C8.32801 32.992 8.49551 32.992 8.70488 33.2014C9.45862 33.9551 10.2124 34.7089 10.9661 35.4626C11.0498 35.5463 11.1755 35.6301 11.3011 35.7976C11.2592 26.5852 11.2592 17.3729 11.2592 8.07675Z" fill="#5FA8FF" stroke="#5FA8FF" stroke-width="0.5"/>
<path d="M12.348 43C8.78863 43 5.18743 43 1.62811 43C1.04187 43 1.04187 43 1.04187 42.3719C1.04187 42.0369 1.04187 41.66 1.04187 41.325C1.04187 41.0738 1.12562 40.9901 1.37687 40.9901C1.46061 40.9901 1.58624 40.9901 1.66999 40.9901C8.78863 40.9901 15.9073 40.9901 23.0259 40.9901C23.654 40.9901 23.654 40.9901 23.654 41.66C23.654 41.9532 23.654 42.2882 23.654 42.5813C23.654 42.9163 23.5284 43 23.2353 43C22.1884 43 21.1416 43 20.0947 43C17.4985 43 14.9023 43 12.348 43Z" fill="#5FA8FF" stroke="#5FA8FF" stroke-width="0.5"/>
</svg>
