<svg width="40" height="39" viewBox="0 0 40 39" fill="none" xmlns="http://www.w3.org/2000/svg">
<path d="M39.0043 2.74159C39.0043 13.9076 39.0043 25.0736 39.0043 36.232C38.9582 36.3779 38.9121 36.5238 38.8584 36.662C38.3669 38.0674 37.0921 38.9966 35.6253 38.9966C24.8816 38.9966 14.138 39.0043 3.39435 38.9966C1.52822 38.9966 0.00767952 37.476 0 35.6099C0 24.8663 0 14.1226 0 3.37899C0 2.54192 0.291822 1.82005 0.814029 1.18265C1.32856 0.560605 2.01203 0.222706 2.77231 0C13.9383 0 25.1043 0 36.2627 0C37.7064 0.383976 38.6126 1.30552 39.0043 2.74159ZM19.5213 36.662C24.7588 36.662 29.9962 36.662 35.2336 36.662C36.278 36.662 36.6927 36.2473 36.6927 35.2106C36.6927 24.7357 36.6927 14.2609 36.6927 3.77832C36.6927 2.71855 36.2857 2.31153 35.2106 2.31153C24.7434 2.31153 14.2839 2.31153 3.81672 2.31153C2.74927 2.31153 2.34225 2.71855 2.34225 3.77832C2.34225 14.2455 2.34225 24.705 2.34225 35.1722C2.34225 36.2627 2.74159 36.662 3.83976 36.662C9.06951 36.662 14.2916 36.662 19.5213 36.662Z" fill="#5FA8FF"/>
<path d="M19.552 4.68445C24.3287 4.69981 28.6522 6.11284 32.515 8.93123C33.2907 9.49183 33.3905 10.1446 32.8069 10.9202C30.887 13.4775 28.9671 16.0348 27.0472 18.5844C26.4943 19.3216 25.8646 19.4214 25.112 18.8839C21.71 16.4725 17.3633 16.4648 13.9613 18.8532C13.1396 19.4291 12.5483 19.337 11.9416 18.5306C10.0371 15.9964 8.13257 13.4621 6.22805 10.9279C5.63672 10.1369 5.72888 9.49951 6.53523 8.91587C9.5456 6.71953 12.9015 5.36793 16.5877 4.86876C17.5707 4.73053 18.5537 4.64606 19.552 4.68445ZM18.3463 12.8478C18.3463 12.3793 18.3463 11.9109 18.3463 11.4424C18.354 10.6745 18.8455 10.1369 19.529 10.1446C20.2048 10.1523 20.6809 10.6822 20.6886 11.4347C20.6963 12.41 20.6963 13.3853 20.6886 14.3683C20.6886 14.6525 20.7884 14.7907 21.0726 14.8214C22.6161 14.998 24.0599 15.4895 25.4038 16.2652C25.6572 16.4111 25.7801 16.342 25.9337 16.1346C27.316 14.2839 28.6983 12.4408 30.096 10.5977C30.288 10.3443 30.2265 10.2214 29.9808 10.0678C29.1591 9.56095 28.3143 9.10018 27.4312 8.70852C23.8602 7.15726 20.151 6.69649 16.3113 7.31853C13.7079 7.7409 11.3042 8.66244 9.06947 10.0601C8.8698 10.183 8.70853 10.2828 8.91588 10.5516C10.3366 12.4177 11.7419 14.2992 13.1473 16.173C13.2778 16.342 13.393 16.388 13.5927 16.2805C14.9597 15.4972 16.4264 14.9904 18.0007 14.8061C18.2388 14.7753 18.3617 14.6601 18.354 14.4067C18.3386 13.8845 18.3463 13.37 18.3463 12.8478Z" fill="#5FA8FF"/>
</svg>
