<svg width="48" height="48" viewBox="0 0 48 48" fill="none" xmlns="http://www.w3.org/2000/svg">
<path d="M39.8353 2.43234C40.3322 2.88193 40.8173 3.35518 41.2905 3.82843C43.3018 5.81609 45.3013 7.80374 47.3008 9.7914C47.8687 10.3475 47.8805 10.6314 47.3836 11.223C47.1707 11.4714 46.9459 11.7081 46.7211 11.9447C45.8692 12.832 44.8754 12.8912 43.9171 12.1103C42.3672 10.8207 40.8173 9.53111 39.2674 8.22967C39.1964 8.17051 39.1136 8.09952 39.0426 8.04037C38.9243 7.95755 38.7941 7.91022 38.6876 8.02854C38.5812 8.15868 38.7231 8.22967 38.7941 8.31249C38.9716 8.47813 39.1609 8.64376 39.3384 8.8094C40.7463 10.0635 42.1542 11.3176 43.5503 12.5954C44.2247 13.2106 44.3666 14.0743 43.9999 14.8434C43.6449 15.5887 42.9232 16.0028 42.0714 15.9318C41.5508 15.8845 41.1485 15.6242 40.7818 15.2811C39.1845 13.8495 37.5755 12.4179 35.9901 10.9745C35.6943 10.7024 35.5168 10.7616 35.3275 11.0337C35.1146 11.3413 35.434 11.4359 35.576 11.5661C37.1969 13.0332 38.8296 14.4766 40.4387 15.9437C41.3142 16.7482 41.3852 17.9077 40.6516 18.7004C39.8826 19.5404 38.8059 19.5759 37.8831 18.795C37.0194 18.0378 36.1676 17.2688 35.3157 16.4997C34.4994 15.7662 33.6712 15.0327 32.8548 14.2991C32.6655 14.1335 32.5235 14.0033 32.2987 14.2755C32.0503 14.5594 32.1923 14.6895 32.4052 14.867C32.701 15.1036 32.9731 15.3639 33.2571 15.6242C34.6532 16.8665 36.0493 18.1088 37.4335 19.3747C38.2499 20.1319 38.3327 21.2677 37.6583 22.0723C36.9366 22.9359 35.6825 22.9714 34.7715 22.1551C33.1506 20.6998 31.5179 19.2446 29.9088 17.7775C29.6722 17.5645 29.5657 17.5882 29.3764 17.8248C29.1043 18.1679 29.3882 18.2981 29.5775 18.4519C31.1629 19.8835 32.7483 21.3032 34.3456 22.723C34.6887 23.0306 34.9489 23.3737 35.0318 23.8351C35.1856 24.6515 34.8425 25.4442 34.1563 25.8701C33.4345 26.3079 32.5827 26.2605 31.9201 25.6808C30.3702 24.3202 28.8322 22.9241 27.2941 21.5635C27.1521 21.4334 27.0102 21.1376 26.738 21.4215C26.4778 21.6937 26.5487 21.9066 26.8209 22.1078C26.9747 22.2261 27.1166 22.368 27.2586 22.4982C28.6192 23.7168 29.9798 24.9118 31.3286 26.1422C32.2869 27.0177 32.2751 28.3192 31.3404 29.1119C30.5832 29.7626 29.5302 29.7034 28.702 28.9581C27.3769 27.7749 26.0637 26.5918 24.7504 25.4087C24.6321 25.3022 24.5374 25.1247 24.3363 25.2312C24.1943 25.314 24.1115 25.4797 24.0878 25.6453C24.0642 25.8583 24.2653 25.9411 24.3954 26.0594C25.6969 27.2307 27.022 28.3902 28.3116 29.5851C29.1989 30.4015 29.2226 31.4781 28.4417 32.3891C28.1578 32.7086 27.8738 33.0162 27.5899 33.3475C27.2704 33.7142 26.9155 33.8089 26.4541 33.6078C25.4603 33.1818 24.4546 32.7796 23.4371 32.401C21.7571 31.7739 20.1953 32.0224 18.9294 33.2883C17.1074 35.1103 15.4037 37.0507 13.9011 39.1448C12.5168 41.0615 11.3574 43.1201 10.2571 45.2143C9.26324 47.0836 7.08628 48.1011 5.06313 47.687C3.19379 47.2966 1.88052 46.2199 1.27712 44.3979C0.673727 42.564 1.06416 40.8958 2.3656 39.4643C3.63155 38.0682 4.93299 36.6957 6.19894 35.3115C7.99729 33.3356 9.87846 31.4308 11.3692 29.1947C14.2442 24.8999 17.1547 20.6289 19.9942 16.3104C23.3898 11.081 27.5781 6.58512 32.2041 2.47967C33.3044 1.5095 34.5822 0.977094 35.8481 1.00076C37.5045 0.988925 38.7705 1.47401 39.8353 2.43234ZM24.2653 31.1232C24.8214 31.3598 25.3893 31.5846 25.9572 31.8094C26.8327 32.1525 26.6079 32.188 27.2113 31.5136C27.6017 31.0759 27.5899 30.9457 27.1403 30.5435C25.6969 29.2302 24.2416 27.9287 22.7864 26.6273C22.3013 26.1896 22.2422 25.9293 22.5498 25.3377C23.6737 23.1607 25.0698 21.1494 26.5132 19.1736C28.986 15.7899 31.6599 12.5836 34.6413 9.62576C35.7535 8.52545 36.9129 7.4843 38.1552 6.54963C38.7941 6.06454 39.0189 6.07638 39.6223 6.58512C41.326 8.00487 43.0179 9.42463 44.7098 10.8562C45.2067 11.2703 45.4551 11.2348 45.8101 10.7734C45.9402 10.5959 45.9165 10.5013 45.7746 10.3593C43.5266 8.14685 41.3142 5.89891 39.0426 3.72195C37.256 2.01825 34.9135 2.06557 33.0678 3.73378C29.8378 6.65611 26.7262 9.69675 24.076 13.1515C21.8162 16.0975 19.8049 19.2091 17.7463 22.2971C15.6166 25.4915 13.5817 28.7451 11.2627 31.8094C10.0204 33.4421 8.55336 34.8855 7.18093 36.4118C5.93865 37.7842 4.66087 39.133 3.41858 40.5054C2.44842 41.582 2.19996 42.8243 2.75603 44.1613C3.32393 45.5219 4.42424 46.2317 5.86766 46.2672C7.22826 46.3027 8.31673 45.6638 8.96746 44.4452C9.86663 42.7652 10.7776 41.097 11.8306 39.5116C13.5698 36.885 15.6285 34.5306 17.8173 32.2827C18.9649 31.0995 20.432 30.5671 22.0883 30.6263C22.8455 30.6145 23.5673 30.8274 24.2653 31.1232ZM39.6341 17.5645C39.7406 17.3398 39.6223 17.1741 39.4803 17.044C39.0071 16.618 38.5338 16.1921 38.0487 15.7662C36.8538 14.7014 35.647 13.6366 34.4639 12.5481C34.1681 12.276 34.0261 12.3943 33.7895 12.6191C33.5292 12.8794 33.6475 13.0213 33.8605 13.2106C35.4814 14.6659 37.1022 16.1211 38.735 17.5645C38.8769 17.6947 39.0307 17.8367 39.1727 17.8367C39.433 17.8248 39.5513 17.7302 39.6341 17.5645ZM36.5698 21.0075C36.7 20.7945 36.5935 20.617 36.4515 20.475C36.0256 20.0728 35.5878 19.6705 35.1501 19.2801C33.9433 18.1916 32.7365 17.115 31.5179 16.0383C31.3286 15.8727 31.1629 15.6242 30.879 15.9555C30.6305 16.2394 30.6187 16.4169 30.9145 16.6772C32.5472 18.1206 34.1681 19.5759 35.789 21.0311C35.8954 21.1258 36.0138 21.2204 36.1794 21.2441C36.3332 21.2441 36.4752 21.1613 36.5698 21.0075ZM37.0549 9.92154C38.664 11.365 40.273 12.8084 41.8821 14.24C42.1069 14.4411 42.3672 14.5594 42.6038 14.2755C42.8404 14.0033 42.6629 13.7785 42.4618 13.6011C40.8409 12.1458 39.22 10.6906 37.611 9.23533C37.5163 9.14068 37.4099 9.04603 37.2679 9.17617C37.1141 9.31815 36.9484 9.44829 36.8301 9.54294C36.8774 9.76774 36.9721 9.83872 37.0549 9.92154ZM28.004 20.2148C29.5539 21.599 31.1038 22.9833 32.6537 24.3675C32.7128 24.4267 32.7838 24.474 32.843 24.5213C33.0559 24.6633 33.2807 24.6988 33.4582 24.4977C33.6593 24.2611 33.5765 24.0363 33.3754 23.847C32.9021 23.421 32.4289 22.9951 31.9556 22.5692C30.8435 21.5754 29.7432 20.5815 28.6192 19.5995C28.5127 19.5049 28.4063 19.2801 28.2169 19.3984C28.0276 19.5285 27.9093 19.7297 27.8147 19.9308C27.8029 20.0846 27.9212 20.1438 28.004 20.2148ZM25.4129 24.0363C26.8327 25.3022 28.2524 26.5682 29.6722 27.8341C29.897 28.0352 30.1336 28.189 30.3939 27.9051C30.6542 27.6211 30.4767 27.3963 30.2638 27.1952C28.8322 25.9174 27.4006 24.6397 25.969 23.3619C25.8625 23.2672 25.7324 23.0543 25.5667 23.1962C25.4129 23.3264 25.3183 23.5275 25.2236 23.6577C25.2118 23.8706 25.3183 23.9416 25.4129 24.0363Z" fill="#5FA8FF" stroke="#5FA8FF" stroke-width="0.3"/>
</svg>
