<svg width="47" height="46" viewBox="0 0 47 46" fill="none" xmlns="http://www.w3.org/2000/svg">
<path d="M23.74 44.9896C17.1973 44.9896 10.6645 44.9896 4.1219 44.9896C2.8272 44.9896 1.8883 44.3958 1.31508 43.2478C0.573845 41.7634 1.1866 39.9424 2.66907 39.2101C3.0644 39.0122 3.27195 38.8142 3.34113 38.3293C3.52891 37.0329 4.55676 36.0531 5.87122 35.8651C6.26654 35.8057 6.31596 35.6474 6.31596 35.3208C6.30608 30.9961 6.30608 26.6713 6.31596 22.3466C6.31596 22.0101 6.19736 21.7924 5.93052 21.6044C5.19916 21.0798 4.48758 20.5355 3.77599 19.9912C3.09405 19.4667 3.09405 18.9224 3.78587 18.4177C10.2198 13.707 16.6636 8.99631 23.0976 4.28561C23.6115 3.90955 23.8882 3.90955 24.4219 4.30541C26.0625 5.50287 27.7031 6.71024 29.3437 7.90771C29.4524 7.98688 29.5513 8.15512 29.6995 8.07594C29.8181 8.00667 29.7489 7.84833 29.7588 7.71967C29.7687 7.31392 29.7588 6.89827 29.7588 6.49252C29.7588 6.06697 29.8478 5.61173 29.2844 5.40391C29.067 5.32474 29.0077 5.03774 29.0077 4.79033C29.0077 3.80069 28.9978 2.80115 29.0077 1.81151C29.0176 1.30679 29.3042 1.0099 29.7983 1C32.3284 1 34.8486 1 37.3688 1.0099C37.8432 1.0099 38.1397 1.30679 38.1397 1.79171C38.1595 2.80115 38.1397 3.81058 38.1397 4.82002C38.1397 5.17629 37.9618 5.4336 37.6456 5.56225C37.4281 5.65132 37.3787 5.78987 37.3787 5.9977C37.3787 8.49159 37.3886 10.9855 37.3787 13.4794C37.3787 13.7862 37.5467 13.9247 37.7543 14.0831C39.7111 15.5181 41.6779 16.953 43.6348 18.3781C43.8818 18.5563 44.119 18.7344 44.1783 19.061C44.2475 19.4766 44.04 19.7537 43.7336 19.9813C42.9924 20.5355 42.2511 21.1095 41.5 21.6538C41.2529 21.832 41.164 22.0299 41.164 22.3268C41.1739 26.6614 41.1739 31.006 41.164 35.3406C41.164 35.687 41.2529 35.8156 41.6285 35.875C43.022 36.0927 44.0597 37.1912 44.1783 38.5866C44.208 38.9429 44.4254 39.0122 44.6626 39.1309C45.9375 39.7247 46.6096 40.942 46.4515 42.377C46.323 43.5843 45.3248 44.6531 44.0499 44.9401C43.7534 45.0094 43.4569 44.9995 43.1604 44.9995C36.6869 44.9995 30.2134 44.9896 23.74 44.9896ZM39.5926 32.629C39.5926 29.2345 39.5827 25.8499 39.6024 22.4555C39.6024 22.0398 39.4641 21.8023 39.1379 21.5648C34.1667 17.9526 29.1955 14.3404 24.2341 10.7084C23.8684 10.4412 23.6214 10.4313 23.2557 10.7084C18.2845 14.3503 13.3034 17.9724 8.31236 21.5945C7.9961 21.8221 7.88738 22.0695 7.88738 22.4555C7.89726 29.2246 7.89727 35.9938 7.89727 42.753C7.89727 43.4062 7.89726 43.4062 8.52979 43.4062C13.6196 43.4062 18.7094 43.4062 23.7993 43.4062C24.4713 43.4062 24.4713 43.4062 24.4713 42.7332C24.4713 37.2407 24.4713 31.7581 24.4713 26.2656C24.4713 25.464 24.7085 25.2265 25.5189 25.2265C28.8792 25.2265 32.2296 25.2265 35.5899 25.2265C36.4201 25.2265 36.6474 25.4541 36.6474 26.3052C36.6474 30.1549 36.6474 34.0046 36.6474 37.8543C36.6474 39.5466 36.6573 41.229 36.6375 42.9213C36.6375 43.2874 36.7363 43.4359 37.1218 43.4161C37.7543 43.3864 38.3868 43.3765 39.0094 43.4161C39.5036 43.4458 39.6123 43.2775 39.6123 42.8025C39.5827 39.4179 39.5926 36.0235 39.5926 32.629ZM26.0427 35.113C26.0427 37.7157 26.0526 40.3185 26.0329 42.9213C26.0329 43.2874 26.1317 43.4161 26.5171 43.4161C29.1955 43.4062 31.8738 43.4062 34.5521 43.4161C34.9475 43.4161 35.0562 43.2775 35.0562 42.9015C35.0463 37.7058 35.0463 32.5201 35.0562 27.3245C35.0562 26.9385 34.9475 26.8 34.5521 26.8099C31.8936 26.8297 29.2251 26.8297 26.5666 26.8099C26.1416 26.8099 26.0329 26.9484 26.0329 27.3542C26.0526 29.9371 26.0427 32.53 26.0427 35.113ZM41.925 19.2094C41.8657 19.0115 41.6779 18.9422 41.5297 18.8334C35.7974 14.6373 30.0652 10.4412 24.3231 6.24511C23.74 5.81956 23.74 5.81956 23.1569 6.24511C19.1048 9.21403 15.0428 12.183 10.9907 15.1519C9.26114 16.4186 7.53159 17.6854 5.80204 18.9422C5.51542 19.15 5.49566 19.2985 5.79215 19.4964C6.08865 19.6943 6.39502 19.9022 6.66187 20.1496C6.97813 20.4465 7.22521 20.4069 7.56124 20.1595C10.6053 17.9229 13.669 15.6962 16.7229 13.4695C18.828 11.9356 20.9233 10.4115 23.0284 8.87755C23.6016 8.4619 23.8586 8.46191 24.4318 8.86766C24.6888 9.05569 24.9457 9.23383 25.1928 9.42186C30.1047 13.0044 35.0265 16.577 39.9385 20.1694C40.2745 20.4168 40.5018 20.4069 40.7983 20.1496C41.0849 19.9022 41.4012 19.6943 41.6977 19.4667C41.8064 19.4074 41.9052 19.348 41.925 19.2094ZM35.8073 12.6382C35.8073 10.3125 35.8073 8.10563 35.8073 5.90863C35.8073 5.64142 35.6393 5.61173 35.4317 5.61173C34.2062 5.61173 32.9807 5.62163 31.7453 5.61173C31.4389 5.61173 31.3302 5.7206 31.3302 6.02738C31.3401 7.01703 31.3401 8.01657 31.3302 9.00621C31.3302 9.27341 31.4192 9.45155 31.6267 9.59999C32.1011 9.93647 32.5656 10.2828 33.04 10.6292C33.9394 11.2725 34.8289 11.9257 35.8073 12.6382ZM41.1739 40.3878C41.1739 41.2587 41.1837 42.1196 41.1739 42.9905C41.1739 43.2775 41.2529 43.426 41.5692 43.4161C42.1622 43.3963 42.765 43.426 43.3679 43.4062C43.8225 43.3963 44.2376 43.2379 44.5341 42.8718C44.8998 42.4165 44.9986 41.9118 44.7614 41.3675C44.5045 40.7737 44.0103 40.5065 43.3778 40.4669C42.6464 40.4175 42.3796 40.0711 42.5279 39.3388C42.5476 39.2596 42.5575 39.1804 42.5773 39.1111C42.6959 38.4481 42.2412 37.7157 41.5988 37.5178C41.2925 37.4287 41.1739 37.4881 41.1739 37.8345C41.1837 38.6856 41.1739 39.5367 41.1739 40.3878ZM6.31596 40.4274C6.31596 39.5763 6.31596 38.7252 6.31596 37.8741C6.31596 37.4386 6.22701 37.3793 5.81192 37.5376C5.11021 37.8147 4.79395 38.4877 4.97185 39.3684C5.10033 40.0315 4.8236 40.4076 4.17131 40.4472C3.26206 40.5065 2.59001 41.1597 2.60978 41.9514C2.63942 42.753 3.33125 43.3765 4.23061 43.3963C4.78407 43.4062 5.32764 43.3864 5.8811 43.4062C6.20725 43.4161 6.32584 43.2973 6.31596 42.9707C6.30608 42.1295 6.31596 41.2785 6.31596 40.4274ZM33.5737 2.58343C32.8819 2.58343 32.1901 2.57353 31.4982 2.58343C30.4704 2.59332 30.6088 2.43498 30.5791 3.53349C30.5692 3.93924 30.7175 4.0481 31.093 4.0382C32.5854 4.01841 34.0876 4.0382 35.58 4.02831C36.6968 4.01841 36.5387 4.22623 36.5683 3.00897C36.5782 2.6725 36.4497 2.57353 36.1236 2.57353C35.2736 2.59332 34.4237 2.58343 33.5737 2.58343Z" fill="#5FA8FF" stroke="#5FA8FF" stroke-width="0.5"/>
<path d="M10.8523 31.2731C10.8523 29.5908 10.8523 27.8985 10.8523 26.2161C10.8523 25.4936 11.1093 25.2363 11.811 25.2363C14.7265 25.2363 17.6321 25.2363 20.5477 25.2363C21.2296 25.2363 21.4965 25.5035 21.5063 26.1765C21.5063 29.6105 21.5063 33.0545 21.5063 36.4886C21.5063 37.1417 21.2395 37.4188 20.5971 37.4188C17.6519 37.4188 14.7067 37.4188 11.7615 37.4188C11.1191 37.4188 10.8523 37.1417 10.8523 36.4787C10.8523 34.7468 10.8523 33.0149 10.8523 31.2731ZM15.3887 28.6902C15.3887 28.2053 15.3788 27.7104 15.3887 27.2255C15.3985 26.9583 15.3195 26.8099 15.023 26.8198C14.2818 26.8297 13.5405 26.8297 12.7993 26.8198C12.5423 26.8198 12.4237 26.9088 12.4237 27.176C12.4336 28.1657 12.4336 29.1652 12.4237 30.1549C12.4237 30.4418 12.5423 30.5408 12.819 30.5408C13.5405 30.5309 14.2719 30.5309 14.9933 30.5408C15.3195 30.5507 15.3985 30.4023 15.3887 30.1054C15.3788 29.6402 15.3887 29.1652 15.3887 28.6902ZM19.925 28.7298C19.925 28.2251 19.9152 27.7203 19.925 27.2156C19.9349 26.9385 19.8361 26.8198 19.5396 26.8198C18.7984 26.8297 18.0571 26.8297 17.3159 26.8198C17.049 26.8198 16.9601 26.9286 16.9601 27.1859C16.97 28.1756 16.97 29.1751 16.9601 30.1648C16.9601 30.4221 17.049 30.5408 17.3159 30.5309C18.0571 30.521 18.7984 30.521 19.5396 30.5309C19.8262 30.5309 19.9349 30.4122 19.925 30.1351C19.9152 29.6699 19.925 29.1949 19.925 28.7298ZM12.4336 34.0244C12.4336 34.4994 12.4435 34.9744 12.4336 35.4395C12.4237 35.7166 12.5225 35.8453 12.819 35.8354C13.5603 35.8255 14.3015 35.8255 15.0428 35.8354C15.3096 35.8354 15.4084 35.7265 15.4084 35.4692C15.3985 34.4796 15.3985 33.4801 15.4084 32.4904C15.4084 32.1935 15.2701 32.1143 15.0032 32.1143C14.2818 32.1242 13.5504 32.1242 12.8289 32.1143C12.5423 32.1143 12.4336 32.2232 12.4435 32.5102C12.4435 33.0149 12.4336 33.5196 12.4336 34.0244ZM16.97 33.9749C16.97 34.4796 16.97 34.9843 16.97 35.489C16.97 35.7265 17.0589 35.8354 17.306 35.8354C18.067 35.8255 18.8181 35.8255 19.5791 35.8354C19.846 35.8354 19.9448 35.7265 19.9349 35.4692C19.925 34.4796 19.925 33.4801 19.9349 32.4904C19.9349 32.2331 19.846 32.1143 19.5791 32.1143C18.8379 32.1242 18.0967 32.1242 17.3554 32.1143C17.0688 32.1143 16.9601 32.2331 16.97 32.5102C16.9799 33.005 16.97 33.4899 16.97 33.9749Z" fill="#5FA8FF" stroke="#5FA8FF" stroke-width="0.5"/>
<path d="M29.0669 34.3807C29.057 34.826 28.7308 35.1427 28.2861 35.1427C27.8216 35.1427 27.4856 34.7963 27.4955 34.3312C27.5053 33.8759 27.8611 33.5494 28.3256 33.5692C28.7605 33.5889 29.0768 33.9353 29.0669 34.3807Z" fill="#5FA8FF" stroke="#5FA8FF" stroke-width="0.5"/>
</svg>
